PathFileType	4	(X/Y/Z)	/Users/visionmauri/1_6_1_f_Sports2D/1_6_1_f_Sports2D_m_person00.trc
DataRate	CameraRate	NumFrames	NumMarkers	Units	OrigDataRate	OrigDataStartFrame	OrigNumFrames
30.0	30.0	9	22	m	30.0	55	447
Frame#	Time	Hip			RHip			RKnee			RAnkle			RBigToe			RSmallToe			RHeel			LHip			LKnee			LAnkle			LBigToe			LSmallToe			LHeel			Neck			Head			Nose			RShoulder			RElbow			RWrist			LShoulder			LElbow			LWrist			
		X1	Y1	Z1	X2	Y2	Z2	X3	Y3	Z3	X4	Y4	Z4	X5	Y5	Z5	X6	Y6	Z6	X7	Y7	Z7	X8	Y8	Z8	X9	Y9	Z9	X10	Y10	Z10	X11	Y11	Z11	X12	Y12	Z12	X13	Y13	Z13	X14	Y14	Z14	X15	Y15	Z15	X16	Y16	Z16	X17	Y17	Z17	X18	Y18	Z18	X19	Y19	Z19	X20	Y20	Z20	X21	Y21	Z21	X22	Y22	Z22
55	1.8374439461883407	0.6354413987002934	0.7890781850355042	0.0301	0.7862409719827744	0.7948703846212651	0.0301	0.9789847604202362	0.310276025368012	0.129	1.1567395518993187	-0.22870682068199363	0.023	1.1510186015056172	-0.3592988048111748	0.2179	1.2479830286912597	-0.33311079396198917	0.1804	1.1832115650741737	-0.3262284147464538	-0.0119	0.5209679225453734	0.7021001863422648	0.0301	0.7007192660605579	0.3176263796338966	0.129	0.9252593049075634	-0.14408235141230807	0.023	1.0200358821005078	-0.2935200035529885	0.2179	0.9274558072654777	-0.318012759522476	0.1804	0.9811137231643777	-0.2557204105742566	-0.0119	0.30883079515641043	1.494000626091697	0.0008	0.23716459508944637	1.6582140108395935	0.0655	0.31316005718832496	1.5327803274103058	0.1076	0.57815722475839	1.4985072007118876	-0.01275	0.8629378226754563	1.2134025629452656	0.0702	1.028720858479994	0.966322456696503	0.1076	0.13508494757239262	1.3110486691660448	-0.01275	0.16758983555063992	0.9215874428200816	0.0702	0.18729458789186107	0.8822812235875358	0.1076
56	1.8708520179372197	0.6307866597871279	0.7919504690186269	0.0301	0.7777306928001363	0.8018122085457569	0.0301	0.9745395480437581	0.33385726004689725	0.129	1.1429782177244576	-0.18633232613091225	0.023	1.141932658291225	-0.3514386177606438	0.2179	1.2390797892337284	-0.3152431006870267	0.1804	1.165918267046296	-0.2844906556617306	-0.0119	0.5159070381511803	0.7061844969496653	0.0301	0.6943720929862048	0.32089015566980095	0.129	0.9265751069546205	-0.15585624665275233	0.023	1.00543254078708	-0.30256276263298354	0.2179	0.9198166154052565	-0.30865581914579365	0.1804	0.9847402644186168	-0.27365861507246436	-0.0119	0.30975042219161003	1.4858093906107135	0.0008	0.23678881863178383	1.654315642230971	0.0655	0.31066327716731335	1.5263487409389265	0.1076	0.5728576436863541	1.4941953692697565	-0.01275	0.8585191448554325	1.2143779375859165	0.0702	1.0245052545234279	0.9689652246724828	0.1076	0.13326386904982138	1.3039229518174091	-0.01275	0.16578520299999214	0.9098405635639575	0.0702	0.1876608145238922	0.8804801633632005	0.1076
57	1.9042600896860986	0.6241747798075492	0.7967664994611114	0.0301	0.7683861461990042	0.8110376460875669	0.0301	0.9654742367524882	0.3584321569618296	0.129	1.1277933766054764	-0.14281306519387812	0.023	1.1177719711358083	-0.33556785732064526	0.2179	1.2269760937329273	-0.2884944380522652	0.1804	1.1468986147568332	-0.24132683276491065	-0.0119	0.510172661644419	0.7132918445636162	0.0301	0.6880601622167524	0.3256906112848156	0.129	0.9167300013582373	-0.1592525254641322	0.023	0.9873891923004401	-0.3015272376089654	0.2179	0.9088307013135849	-0.2958832058012297	0.1804	0.9787017304477938	-0.2848668933624025	-0.0119	0.31118654692798825	1.476949611168938	0.0008	0.2348137878733872	1.6511661976901082	0.0655	0.30556194898593747	1.5204084060399814	0.1076	0.5672811206515153	1.4885176010197734	-0.01275	0.8528662904948751	1.2134407708226038	0.0702	1.0211891711393462	0.9696987179010983	0.1076	0.13158580066989603	1.2987082120519873	-0.01275	0.16543631352858515	0.903324556561208	0.0702	0.18695016551148783	0.8795735499892713	0.1076
58	1.9376681614349776	0.6183382954157655	0.7998647153939193	0.0301	0.7614928774151515	0.8186467087046314	0.0301	0.9546474600394449	0.3781781633308521	0.129	1.1146806687193103	-0.10887659553741792	0.023	1.0930994358799184	-0.31147201278941644	0.2179	1.2136699280373375	-0.25645370267458995	0.1804	1.132038261272675	-0.20793265980275027	-0.0119	0.5052452664645707	0.7188058957357579	0.0301	0.6867722851096778	0.3216174342229108	0.129	0.8884342827692085	-0.11580813274329653	0.023	0.9754455958639777	-0.2922124368224099	0.2179	0.9037334853747447	-0.29638138976685413	0.1804	0.9510784072400974	-0.23675371682527852	-0.0119	0.311714944159011	1.4692070478549142	0.0008	0.23142031974293864	1.6484916365800657	0.0655	0.2965383108391602	1.5130615957290612	0.1076	0.5632387302036798	1.4832498764475064	-0.01275	0.8457983154662492	1.2133904854580395	0.0702	1.0207849960119126	0.9695797303163987	0.1076	0.1306965948169522	1.2947689864890124	-0.01275	0.1640370558346382	0.8998907142190156	0.0702	0.1859862867239171	0.8763039357324127	0.1076
59	1.9710762331838563	0.6162571877597712	0.7989245229073259	0.0301	0.7594174679027863	0.8188648603878997	0.0301	0.9453913485654734	0.3906553888413705	0.129	1.1043313497405867	-0.08744068405684072	0.023	1.0847441736481496	-0.28070981028644626	0.2179	1.2006043524883863	-0.2239070430505206	0.1804	1.1226671525372383	-0.1866011731096659	-0.0119	0.5044673246607817	0.7167753559254207	0.0301	0.6901968427092519	0.3100319547785433	0.129	0.8488087937458053	-0.025036127073317125	0.023	0.9732160560089902	-0.2860484778897007	0.2179	0.9075934103319554	-0.31130341515132615	0.1804	0.9065221852996699	-0.12530471668331405	-0.0119	0.3095997912149148	1.465430897630237	0.0008	0.22896439550599615	1.6434303428867965	0.0655	0.2896539205480828	1.5044792036805947	0.1076	0.5612429241669569	1.479825817947084	-0.01275	0.8376762863213936	1.216826589497147	0.0702	1.0217009139677442	0.9701267720143121	0.1076	0.131212890078997	1.2887895255153117	-0.01275	0.16334462504361769	0.8942305569933748	0.0702	0.18817630929466528	0.8667182856066546	0.1076
60	2.004484304932735	0.6165326600990086	0.7979354056384711	0.0301	0.7602801470671359	0.8134548291157874	0.0301	0.9385691816753624	0.3968621184732222	0.129	1.0964559626266643	-0.07452302747935644	0.023	1.0888724755289854	-0.24549162040968323	0.2179	1.1879746784621874	-0.19285607935233243	0.1804	1.1165769979377163	-0.17194457711312716	-0.0119	0.5068153855474175	0.7105322016787433	0.0301	0.6907243721519231	0.30644538003974486	0.129	0.8343067606599658	0.016060942199297407	0.023	0.978633632367462	-0.2845999303226526	0.2179	0.9147330089054151	-0.32198382146252874	0.1804	0.8863846446226906	-0.06723412090063062	-0.0119	0.30555414662778274	1.4642080227604317	0.0008	0.22880255481300998	1.635501944697725	0.0655	0.2929585590136048	1.5006569800014613	0.1076	0.5591345288347954	1.4778849098328883	-0.01275	0.8302407869709839	1.2214276332817895	0.0702	1.0214616592931125	0.9712169162361369	0.1076	0.13286247900925463	1.2805408485546204	-0.01275	0.16533433528037791	0.886135086172606	0.0702	0.19281312843707085	0.8538757349715932	0.1076
61	2.037892376681614	0.6164930784952259	0.8004505071581516	0.0301	0.7616404199269777	0.8084402558034701	0.0301	0.9328593834351181	0.40039944738928374	0.129	1.0907659818725688	-0.0650068509619837	0.023	1.0892391391768415	-0.20557766907301903	0.2179	1.175377393498621	-0.16188225891709077	0.1804	1.1126561283780747	-0.15722576420686926	-0.0119	0.5086757845719947	0.7064786488454533	0.0301	0.6822920533865232	0.3222127306399571	0.129	0.8640752490557929	-0.05252272650904189	0.023	0.985597474904046	-0.2776880825238912	0.2179	0.9187722602697783	-0.3139756131868329	0.1804	0.8991306687428653	-0.10079103517908562	-0.0119	0.3020608100839776	1.4622747456040293	0.0008	0.22985767168178137	1.6267693286210712	0.0655	0.3030064782319048	1.5030763814778687	0.1076	0.5556498280026124	1.4753983613168522	-0.01275	0.8257045114653754	1.2237233956547275	0.0702	1.0199831708779734	0.9720258328353886	0.1076	0.13565819159274942	1.2745148636010062	-0.01275	0.16753394224022147	0.8823444733421989	0.0702	0.195806365363469	0.8463413000923197	0.1076
62	2.071300448430493	0.6161238317073989	0.8013702630797693	0.0301	0.7635946164170201	0.8043240389976485	0.0301	0.9269516439984734	0.4030465414793336	0.129	1.0865858448511179	-0.05728337487731708	0.023	1.0784378767201543	-0.16155899712254188	0.2179	1.1627652129431798	-0.131003313393483	0.1804	1.110840901847993	-0.14243674299179443	-0.0119	0.5095660708389473	0.7040739547991809	0.0301	0.6724868243321097	0.3424094186521109	0.129	0.8891468499135777	-0.11070446396604132	0.023	0.9921258948716215	-0.2743862288706129	0.2179	0.9198987728629363	-0.3016800131766854	0.1804	0.8764818938388095	-0.056533607725582184	-0.0119	0.30049134203648087	1.460330946946671	0.0008	0.2317178591863867	1.6185927318089304	0.0655	0.3098821098922982	1.5033434249207511	0.1076	0.5531538833601929	1.4705523323947347	-0.01275	0.8248480756333142	1.2230377695474703	0.0702	1.0189960521697077	0.9724395348400207	0.1076	0.13922325682653724	1.272570661708746	-0.01275	0.16854447220047059	0.8852587423865965	0.0702	0.19809271247460122	0.8457083786488525	0.1076
63	2.104708520179372	0.6162849759651308	0.7971607937451894	0.0301	0.7653082991803133	0.8022115046229342	0.0301	0.9217174791176106	0.40150788734332976	0.129	1.082603113178609	-0.05205071254022884	0.023	1.061369273615703	-0.11835351085538906	0.2179	1.1494622770523253	-0.10148835479575719	0.1804	1.1085392487430088	-0.13281122552072344	-0.0119	0.5089373909260856	0.7047219458668121	0.0301	0.6745544067280057	0.3410772466025234	0.129	0.8537494732134534	-0.019798767627030013	0.023	0.9963395827633338	-0.28379569386417547	0.2179	0.9170123900544399	-0.2973337930014506	0.1804	0.7930988172138675	0.13889244353921482	-0.0119	0.3028018317858636	1.4577552236977342	0.0008	0.23542784665365146	1.6126815774696772	0.0655	0.31218721700199725	1.4961346593572145	0.1076	0.5540307581836426	1.4645403080630286	-0.01275	0.8260908608193254	1.221061916013998	0.0702	1.0189528971957729	0.9726974073962086	0.1076	0.14273993928158996	1.2707806451176826	-0.01275	0.17157304457935235	0.886429950722347	0.0702	0.2034560618349289	0.8476466023775292	0.1076
